# xmcd
#
# Track frame offsets: 
#        150
#        21564
#        42237
#        56765
#        75845
#        101597
#        118994
#        149401
#        170058
#        186643
#        206495
#        230600
#        257791
#        284982
#        314433
#
# Disc length: 4549 seconds
#
# Revision: 1
# Processed by: cddbd v1.5.2PL0 Copyright (c) Steve Scherf et al.
# Submitted via: ExactAudioCopy v0.99pb5
#
DISCID=ef11c30f
DTITLE=Indianer - The Best of
DYEAR=1900
DGENRE=
TTITLE0=All The Pretty Things
TTITLE1=Cry Dance
TTITLE2=A New Morning
TTITLE3=Blue Sky
TTITLE4=Forget Your Sorrows
TTITLE5=La Seda Bordada
TTITLE6=Sayri Nam
TTITLE7=Siwar
TTITLE8=Yellow Flower
TTITLE9=Otavalena
TTITLE10=Poncho
TTITLE11=Matsuri
TTITLE12=Nukalakta
TTITLE13=Antonio Mocho
TTITLE14=Condor Pasa
EXTD=
EXTT0=
EXTT1=
EXTT2=
EXTT3=
EXTT4=
EXTT5=
EXTT6=
EXTT7=
EXTT8=
EXTT9=
EXTT10=
EXTT11=
EXTT12=
EXTT13=
EXTT14=
PLAYORDER=
